# xmcd
#
# Track frame offsets:
#	150
#	22076
#	40558
#	58763
#	81308
#	98706
#	118120
#	140161
#	163464
#	178799
#	191961
#	209165
#	232623
#	257930
#
# Disc length: 3637 seconds
#
# Revision: 0
# Processed by: cddbd v1.5.1PL0 Copyright (c) Steve Scherf et al.
# Submitted via: dBpowerAMP V4.0
#
DISCID=d50e330e
DTITLE=Big and Rich - Horse of a Different Color
DYEAR=2005
DGENRE=country
TTITLE0=Rollin' (The Ballad of Big and Rich)
TTITLE1=Wild West Show
TTITLE2=Big Time
TTITLE3=Kick My Ass
TTITLE4=Six Foot Town
TTITLE5=Holy Water
TTITLE6=Saved
TTITLE7=Real World
TTITLE8=Save A Horse ( Ride A Cowboy)
TTITLE9=Dinkin' 'Bout You
TTITLE10=Love Train
TTITLE11=Deadwood Mountain
TTITLE12=Live This Life
TTITLE13=Cowboy Troy and Montgomery Gentry - I Played Chicken
EXTD=
EXTT0=
EXTT1=
EXTT2=
EXTT3=
EXTT4=
EXTT5=
EXTT6=
EXTT7=
EXTT8=
EXTT9=
EXTT10=
EXTT11=
EXTT12=
EXTT13=
PLAYORDER=
